<mxfile host="app.diagrams.net" modified="2020-11-17T13:47:31.242Z" agent="5.0 (Windows)" etag="-0Zhuexe68Q7ayFF2sdH" version="13.9.9" type="github">
  <diagram name="Page-1" id="55a83fd1-7818-8e21-69c5-c3457e3827bb">
    <mxGraphModel dx="782" dy="404" grid="1" gridSize="10" guides="1" tooltips="1" connect="1" arrows="1" fold="1" page="1" pageScale="1" pageWidth="1169" pageHeight="827" background="#ffffff" math="0" shadow="0">
      <root>
        <mxCell id="0" />
        <mxCell id="1" parent="0" />
        <mxCell id="G7csEVz0UXpxjY1oYoXJ-6" value="" style="fontColor=#0066CC;verticalAlign=top;verticalLabelPosition=bottom;labelPosition=center;align=center;html=1;outlineConnect=0;fillColor=#CCCCCC;strokeColor=#6881B3;gradientColor=none;gradientDirection=north;strokeWidth=2;shape=mxgraph.networks.laptop;" vertex="1" parent="1">
          <mxGeometry x="660" y="350" width="100" height="55" as="geometry" />
        </mxCell>
        <mxCell id="G7csEVz0UXpxjY1oYoXJ-8" value="" style="fontColor=#0066CC;verticalAlign=top;verticalLabelPosition=bottom;labelPosition=center;align=center;html=1;outlineConnect=0;fillColor=#CCCCCC;strokeColor=#6881B3;gradientColor=none;gradientDirection=north;strokeWidth=2;shape=mxgraph.networks.server;" vertex="1" parent="1">
          <mxGeometry x="585" y="740" width="90" height="100" as="geometry" />
        </mxCell>
        <mxCell id="G7csEVz0UXpxjY1oYoXJ-17" style="orthogonalLoop=1;jettySize=auto;html=1;exitX=0.5;exitY=0.07;exitDx=0;exitDy=0;exitPerimeter=0;endArrow=oval;endFill=1;shadow=0;sketch=0;rounded=0;endSize=0;startSize=0;startArrow=oval;startFill=1;" edge="1" parent="1" source="G7csEVz0UXpxjY1oYoXJ-18" target="G7csEVz0UXpxjY1oYoXJ-20">
          <mxGeometry relative="1" as="geometry">
            <mxPoint x="480" y="240" as="targetPoint" />
          </mxGeometry>
        </mxCell>
        <mxCell id="G7csEVz0UXpxjY1oYoXJ-18" value="" style="fontColor=#0066CC;verticalAlign=top;verticalLabelPosition=bottom;labelPosition=center;align=center;html=1;outlineConnect=0;fillColor=#CCCCCC;strokeColor=#6881B3;gradientColor=none;gradientDirection=north;strokeWidth=2;shape=mxgraph.networks.pc;" vertex="1" parent="1">
          <mxGeometry x="630" y="330" width="100" height="90" as="geometry" />
        </mxCell>
        <mxCell id="G7csEVz0UXpxjY1oYoXJ-19" value="" style="html=1;outlineConnect=0;fillColor=#CCCCCC;strokeColor=#6881B3;gradientColor=none;gradientDirection=north;strokeWidth=2;shape=mxgraph.networks.cloud;fontColor=#ffffff;" vertex="1" parent="1">
          <mxGeometry x="690" y="50" width="90" height="50" as="geometry" />
        </mxCell>
        <mxCell id="G7csEVz0UXpxjY1oYoXJ-20" value="" style="shape=mxgraph.cisco.hubs_and_gateways.generic_gateway;html=1;pointerEvents=1;dashed=0;fillColor=#036897;strokeColor=#ffffff;strokeWidth=2;verticalLabelPosition=bottom;verticalAlign=top;align=center;outlineConnect=0;" vertex="1" parent="1">
          <mxGeometry x="350" y="170" width="116" height="100" as="geometry" />
        </mxCell>
        <mxCell id="G7csEVz0UXpxjY1oYoXJ-21" value="" style="shape=mxgraph.cisco.hubs_and_gateways.vpn_gateway;html=1;pointerEvents=1;dashed=0;fillColor=#036897;strokeColor=#ffffff;strokeWidth=2;verticalLabelPosition=bottom;verticalAlign=top;align=center;outlineConnect=0;" vertex="1" parent="1">
          <mxGeometry x="660" y="200" width="91" height="48" as="geometry" />
        </mxCell>
        <mxCell id="G7csEVz0UXpxjY1oYoXJ-22" value="172.16.0.1/6" style="edgeLabel;html=1;align=center;verticalAlign=middle;resizable=0;points=[];" vertex="1" connectable="0" parent="1">
          <mxGeometry x="510.0046888731031" y="234.99971169249955" as="geometry" />
        </mxCell>
        <mxCell id="G7csEVz0UXpxjY1oYoXJ-23" value="&lt;div&gt;192.168.8.166&lt;/div&gt;" style="text;html=1;align=center;verticalAlign=middle;resizable=0;points=[];autosize=1;" vertex="1" parent="1">
          <mxGeometry x="470" y="190" width="90" height="20" as="geometry" />
        </mxCell>
      </root>
    </mxGraphModel>
  </diagram>
</mxfile>
